<svg width="30" height="30" viewBox="0 0 30 30" fill="none" xmlns="http://www.w3.org/2000/svg">
<path d="M11.2505 0L9.37547 0.46875V1.875H11.2505V0ZM11.2505 1.875V3.75H9.37547V1.875C7.01672 1.90313 5.28984 1.81875 3.87984 2.59687C3.17297 2.98688 2.61234 3.64687 2.30484 4.46812C1.99547 5.29125 1.88672 6.26813 1.88672 7.5V22.5C1.88672 23.7337 1.99547 24.7106 2.30484 25.5319C2.61234 26.3569 3.17297 27.0113 3.87984 27.4013C5.28984 28.1794 7.01672 28.0987 9.37547 28.125H15.008V26.25H9.37547C7.01297 26.2237 5.46234 26.1375 4.77609 25.7606C4.43297 25.5694 4.23234 25.3612 4.05047 24.8737C3.86672 24.3862 3.75047 23.6119 3.75047 22.5V13.125C3.75047 12.015 3.86859 11.2406 4.05047 10.7531C4.23422 10.2656 4.43297 10.0556 4.77609 9.86625C5.46422 9.4875 7.01672 9.40312 9.38672 9.375H20.6255C22.988 9.40312 24.5386 9.4875 25.2248 9.86625C25.5698 10.0556 25.7686 10.2656 25.9505 10.7531C26.1342 11.2406 26.2505 13.125 26.2505 13.125V15H28.1255V7.5C28.1255 6.26813 28.013 5.29125 27.7036 4.46812C27.4202 3.67729 26.8636 3.01369 26.1342 2.59687C24.7223 1.81875 22.9955 1.90313 20.6367 1.875V3.75H18.7617V1.875H11.2505ZM18.7505 1.875H20.6255V0L18.7505 0.46875V1.875Z" fill="white"/>
<path d="M23.4375 30C25.178 30 26.8472 29.3086 28.0779 28.0779C29.3086 26.8472 30 25.178 30 23.4375C30 21.697 29.3086 20.0278 28.0779 18.7971C26.8472 17.5664 25.178 16.875 23.4375 16.875C21.697 16.875 20.0278 17.5664 18.7971 18.7971C17.5664 20.0278 16.875 21.697 16.875 23.4375C16.875 25.178 17.5664 26.8472 18.7971 28.0779C20.0278 29.3086 21.697 30 23.4375 30ZM24.375 28.125H22.5V25.935C22.5 25.2806 22.53 24.6825 22.5881 24.1406C22.6444 23.5969 22.7175 23.0512 22.8037 22.5H24.0525C24.1493 23.044 24.2275 23.5912 24.2869 24.1406C24.3476 24.7368 24.377 25.3357 24.375 25.935V28.125ZM23.4375 20.625C23.1889 20.625 22.9504 20.5262 22.7746 20.3504C22.5988 20.1746 22.5 19.9361 22.5 19.6875C22.5 19.4389 22.5988 19.2004 22.7746 19.0246C22.9504 18.8488 23.1889 18.75 23.4375 18.75C23.6861 18.75 23.9246 18.8488 24.1004 19.0246C24.2762 19.2004 24.375 19.4389 24.375 19.6875C24.375 19.9361 24.2762 20.1746 24.1004 20.3504C23.9246 20.5262 23.6861 20.625 23.4375 20.625Z" fill="white"/>
</svg>
