<svg width="30" height="30" viewBox="0 0 30 30" fill="none" xmlns="http://www.w3.org/2000/svg">
<g clip-path="url(#clip0_2041_1195)">
<path d="M27.5004 4.4375V8.75C27.5004 9.08152 27.3687 9.39946 27.1343 9.63388C26.8999 9.8683 26.5819 10 26.2504 10H21.8754C21.6942 10.002 21.5147 9.96468 21.3494 9.89048C21.1841 9.81629 21.0369 9.70704 20.918 9.5703C20.7991 9.43356 20.7113 9.27261 20.6608 9.09859C20.6103 8.92457 20.5982 8.74165 20.6254 8.5625C20.6842 8.25927 20.848 7.98648 21.0881 7.79214C21.3282 7.5978 21.6291 7.49435 21.9379 7.5H23.3754C21.9195 5.8786 20.024 4.71496 17.9192 4.15044C15.8145 3.58593 13.591 3.64484 11.5191 4.32003C9.44723 4.99522 7.61602 6.25762 6.24799 7.95384C4.87995 9.65007 4.034 11.7071 3.81291 13.875C3.78182 14.1844 3.63651 14.4711 3.40538 14.6791C3.17424 14.8872 2.87387 15.0016 2.56291 15C2.38769 15.0009 2.21424 14.9649 2.05382 14.8944C1.89339 14.8239 1.74958 14.7205 1.63172 14.5909C1.51385 14.4612 1.42456 14.3082 1.36963 14.1418C1.31471 13.9754 1.29538 13.7993 1.31291 13.625C1.57543 11.0007 2.58716 8.50726 4.22746 6.442C5.86776 4.37675 8.06741 2.82681 10.5641 1.97699C13.0609 1.12718 15.7493 1.01335 18.309 1.64908C20.8686 2.28482 23.1914 3.64328 25.0004 5.5625V4.375C24.9984 4.1938 25.0357 4.01433 25.1099 3.84901C25.1841 3.6837 25.2934 3.53649 25.4301 3.41758C25.5668 3.29868 25.7278 3.21093 25.9018 3.16041C26.0758 3.10989 26.2588 3.0978 26.4379 3.125C26.7411 3.18378 27.0139 3.34762 27.2083 3.58769C27.4026 3.82776 27.5061 4.12867 27.5004 4.4375Z" fill="white"/>
<path d="M2.50022 25.5625V21.25C2.50022 20.9185 2.63192 20.6005 2.86634 20.3661C3.10076 20.1317 3.4187 20 3.75022 20H8.12522C8.30641 19.9979 8.48588 20.0353 8.6512 20.1095C8.81652 20.1837 8.96373 20.293 9.08263 20.4297C9.20153 20.5664 9.28928 20.7274 9.33981 20.9014C9.39033 21.0754 9.40241 21.2583 9.37522 21.4375C9.31644 21.7407 9.1526 22.0135 8.91253 22.2079C8.67246 22.4022 8.37154 22.5056 8.06272 22.5H6.62522C8.08116 24.1214 9.97666 25.285 12.0814 25.8496C14.1862 26.4141 16.4096 26.3552 18.4815 25.68C20.5534 25.0048 22.3846 23.7424 23.7526 22.0462C25.1207 20.3499 25.9666 18.2929 26.1877 16.125C26.2188 15.8156 26.3641 15.5289 26.5952 15.3209C26.8264 15.1128 27.1268 14.9984 27.4377 15C27.6129 14.9991 27.7864 15.0351 27.9468 15.1056C28.1072 15.1761 28.251 15.2795 28.3689 15.4091C28.4868 15.5388 28.5761 15.6918 28.631 15.8582C28.6859 16.0246 28.7052 16.2007 28.6877 16.375C28.4252 18.9993 27.4135 21.4927 25.7732 23.558C24.1329 25.6233 21.9332 27.1732 19.4365 28.023C16.9397 28.8728 14.2513 28.9866 11.6916 28.3509C9.13201 27.7152 6.80922 26.3567 5.00022 24.4375V25.625C5.00227 25.8062 4.9649 25.9857 4.89071 26.151C4.81651 26.3163 4.70726 26.4635 4.57052 26.5824C4.43379 26.7013 4.27283 26.7891 4.09881 26.8396C3.92479 26.8901 3.74187 26.9022 3.56272 26.875C3.25949 26.8162 2.98671 26.6524 2.79237 26.4123C2.59802 26.1722 2.49457 25.8713 2.50022 25.5625Z" fill="white"/>
<path d="M15.4377 13.75C13.2502 13.3125 13.2502 12.9375 13.2502 12.625C13.2502 12.3125 13.3752 12.25 13.5627 12.0625C13.9075 11.8771 14.2968 11.7906 14.6877 11.8125C15.4139 11.8062 16.1277 12.0009 16.7502 12.375C16.8767 12.4783 17.0242 12.5527 17.1824 12.5932C17.3406 12.6337 17.5058 12.6393 17.6663 12.6096C17.8269 12.5798 17.9791 12.5155 18.1123 12.421C18.2455 12.3266 18.3566 12.2042 18.4377 12.0625C18.5448 11.9347 18.6239 11.7858 18.6696 11.6254C18.7153 11.465 18.7268 11.2968 18.7032 11.1317C18.6796 10.9666 18.6215 10.8084 18.5327 10.6672C18.4439 10.5261 18.3264 10.4052 18.1877 10.3125C17.5934 9.94566 16.9366 9.69142 16.2502 9.5625V8.125C16.2502 7.79348 16.1185 7.47554 15.8841 7.24112C15.6497 7.0067 15.3317 6.875 15.0002 6.875C14.6687 6.875 14.3508 7.0067 14.1163 7.24112C13.8819 7.47554 13.7502 7.79348 13.7502 8.125V9.5C11.8752 9.8125 10.6252 11.0625 10.6252 12.75C10.6252 14.4375 12.6877 15.8125 14.6877 16.1875C16.6877 16.5625 16.7502 17 16.7502 17.3125C16.7502 17.625 16.0627 18.1875 15.1877 18.1875C14.2675 18.2057 13.3669 17.9201 12.6252 17.375C12.4863 17.2827 12.3304 17.219 12.1665 17.1879C12.0027 17.1567 11.8343 17.1587 11.6712 17.1936C11.5081 17.2286 11.3537 17.2958 11.217 17.3914C11.0803 17.4869 10.9641 17.6089 10.8752 17.75C10.7767 17.8672 10.7031 18.0033 10.659 18.15C10.6149 18.2967 10.6012 18.4508 10.6187 18.6029C10.6363 18.755 10.6847 18.902 10.7611 19.0348C10.8374 19.1675 10.9401 19.2833 11.0627 19.375C11.8669 19.9394 12.7837 20.3232 13.7502 20.5V21.875C13.7502 22.2065 13.8819 22.5245 14.1163 22.7589C14.3508 22.9933 14.6687 23.125 15.0002 23.125C15.3317 23.125 15.6497 22.9933 15.8841 22.7589C16.1185 22.5245 16.2502 22.2065 16.2502 21.875V20.5C16.9358 20.3989 17.5826 20.1186 18.1252 19.6875C18.517 19.3999 18.8347 19.0231 19.0521 18.5884C19.2694 18.1537 19.3802 17.6735 19.3752 17.1875C19.3752 14.875 17.2502 14.125 15.4377 13.75Z" fill="white"/>
</g>
<defs>
<clipPath id="clip0_2041_1195">
<rect width="30" height="30" fill="white"/>
</clipPath>
</defs>
</svg>
