<svg width="30" height="30" viewBox="0 0 30 30" fill="none" xmlns="http://www.w3.org/2000/svg">
<g clip-path="url(#clip0_2041_1179)">
<path d="M18.7816 9.64359C18.7816 11.7797 17.0477 13.5108 14.9097 13.5108C12.7741 13.5108 11.043 11.7792 11.043 9.64359C11.043 7.50796 12.7741 5.7764 14.9097 5.7764C17.0477 5.7764 18.7816 7.50796 18.7816 9.64359Z" fill="white"/>
<path d="M14.9148 0.245636C13.1251 0.245636 10.6252 0.959073 8.81445 2.76985L10.9651 6.68814C11.435 6.09008 12.0348 5.6067 12.7191 5.27456C13.4033 4.94242 14.1542 4.77021 14.9148 4.77095C16.5362 4.77095 17.979 5.53689 18.8982 6.72798L21.0076 2.67985C19.4405 0.967511 16.6304 0.245636 14.9148 0.245636ZM16.5085 3.12282H15.5073V4.12314H14.3045V3.12282H13.3032V1.92048H14.3045V0.915948H15.5073V1.92048H16.5085V3.12282Z" fill="white"/>
<path d="M9.82758 20.4614H10.818L9.40336 25.3102H20.457L19.0488 20.4614H20.0402L21.4573 25.3102H24.7099L22.4899 17.9639C22.143 16.7513 20.6224 14.6161 17.9984 14.5514L11.9655 14.5463C9.28195 14.5594 7.72945 16.7363 7.37836 17.9635L5.11523 25.3097H8.41383L9.82758 20.4614Z" fill="white"/>
<path d="M0.443359 26.8561H29.3793V29.609H0.443359V26.8561Z" fill="white"/>
</g>
<defs>
<clipPath id="clip0_2041_1179">
<rect width="30" height="30" fill="white"/>
</clipPath>
</defs>
</svg>
