<?xml version="1.0" encoding="UTF-8"?>
<svg version="1.1" xmlns="http://www.w3.org/2000/svg" width="1196" height="1022">
<path d="M0 0 C3.4784225 1.63882869 5.68905842 3.48049935 8.37890625 6.25390625 C9.62873291 7.52923218 9.62873291 7.52923218 10.90380859 8.83032227 C11.78117676 9.73194092 12.65854492 10.63355957 13.5625 11.5625 C20.43268981 18.52400634 27.22049992 25.06608703 35 31 C36.036535 31.84568308 37.07021908 32.69486829 38.1015625 33.546875 C52.12509497 45.0322301 67.51872438 54.47781704 84 62 C84.69963867 62.32419922 85.39927734 62.64839844 86.12011719 62.98242188 C116.12410414 76.74374982 148.67900176 82.75103676 180.7890625 89.4765625 C247.75474041 103.50975105 323.25597026 119.81284733 363.78320312 181.06787109 C373 195.70304976 373 195.70304976 373 200 C373.71542969 199.86722656 374.43085937 199.73445312 375.16796875 199.59765625 C376.66263672 199.33275391 376.66263672 199.33275391 378.1875 199.0625 C379.15042969 198.88847656 380.11335938 198.71445312 381.10546875 198.53515625 C393.76945895 196.79496903 406.39929952 196.84468338 419.15893555 196.86962891 C422.45431026 196.87502754 425.74955109 196.86963683 429.04492188 196.86328125 C431.15364613 196.86394142 433.26237031 196.86522132 435.37109375 196.8671875 C436.34928574 196.86516327 437.32747772 196.86313904 438.33531189 196.86105347 C443.00436096 196.87707553 447.407797 197.03327095 452 198 C451.34 198.61875 450.68 199.2375 450 199.875 C427.05560954 223.13984285 413.55834017 256.67443546 402.80834961 286.96899414 C389.00521804 325.83483639 372.15480368 363.42911461 343.36914062 393.56347656 C342.04194932 394.95598613 340.7316017 396.36448908 339.421875 397.7734375 C327.44294076 410.29034783 313.20530361 419.82560046 298 428 C297.35047363 428.3501416 296.70094727 428.7002832 296.03173828 429.06103516 C267.21032618 444.27577202 234.17712751 450.89258927 202 454 C201.09413304 454.08836844 200.18826609 454.17673689 199.25494862 454.26778316 C189.76415193 455.09715914 180.33446617 455.1347179 170.81713867 455.11352539 C169.02214052 455.11324273 167.22714225 455.11340279 165.43214417 455.1139679 C160.59834709 455.11425279 155.76457524 455.10840612 150.93078399 455.10139394 C145.86460866 455.09510886 140.79843265 455.09455254 135.73225403 455.09336853 C126.15620388 455.09027034 116.58016526 455.08207746 107.00412017 455.07201904 C96.09471707 455.06081078 85.1853134 455.05533561 74.27590597 455.05032361 C51.85059761 455.03989348 29.42529945 455.02232351 7 455 C7 454.67 7 454.34 7 454 C8.12136353 453.90295776 8.12136353 453.90295776 9.26538086 453.80395508 C70.7915341 448.33444203 126.61815305 426.81891373 175 388 C175.53689453 387.57348145 176.07378906 387.14696289 176.62695312 386.70751953 C182.44990077 382.07733697 188.05906683 377.24411006 193.55078125 372.2265625 C195.13548535 370.78592241 196.73623839 369.3626593 198.35546875 367.9609375 C211.28083682 356.70131834 222.03178947 343.89342164 232 330 C230.23165912 328.23165912 227.62116006 328.38467632 225.21875 328.01953125 C223.99679932 327.8282666 222.77484863 327.63700195 221.51586914 327.43994141 C220.86167999 327.33820618 220.20749084 327.23647095 219.53347778 327.13165283 C157.8660733 317.45299937 96.10829831 295.38169789 58.05078125 243.31640625 C43.96307116 223.62367062 35.9705829 201.39955834 28.3125 178.625 C28.0380304 177.8134848 27.76356079 177.0019696 27.48077393 176.16586304 C26.70312488 173.85572934 25.93716065 171.54210273 25.17578125 169.2265625 C24.93989792 168.52558945 24.70401459 167.82461639 24.46098328 167.10240173 C22.8843702 162.23125959 22.8843702 162.23125959 24 160 C24.87398438 160.72703125 25.74796875 161.4540625 26.6484375 162.203125 C69.26787637 197.22434184 117.86091127 212.63178899 171.05883789 224.22680664 C184.18101467 227.09725512 197.17455702 230.15955847 210.02734375 234.08203125 C211.56967934 234.55013466 211.56967934 234.55013466 213.14317322 235.0276947 C234.99821836 241.90226228 254.52526851 252.97779537 270 270 C273.93677426 268.68774191 274.8271782 266.8038606 277.1875 263.4375 C277.90292969 262.42558594 278.61835937 261.41367187 279.35546875 260.37109375 C279.89816406 259.58863281 280.44085937 258.80617188 281 258 C274.92428769 243.14435662 254.08747222 230.98142213 240.00463867 225.0168457 C220.19317044 216.83471542 199.21897931 212.23909755 178.375 207.5625 C161.83505578 203.84607094 145.39180006 199.99714607 129.11328125 195.24609375 C128.46983639 195.05850557 127.82639153 194.8709174 127.16344833 194.67764473 C83.51465056 181.89104811 39.65083549 161.24268256 16.78369141 119.79541016 C4.85021273 97.19405132 -1.18869195 71.98667062 -1.1328125 46.4453125 C-1.13376923 45.46311737 -1.13472595 44.48092224 -1.13571167 43.46896362 C-1.13638831 41.40329931 -1.13457025 39.33763281 -1.13037109 37.27197266 C-1.12502714 34.14090097 -1.13032781 31.00997347 -1.13671875 27.87890625 C-1.13605765 25.85937469 -1.13477584 23.83984322 -1.1328125 21.8203125 C-1.13584885 20.43853317 -1.13584885 20.43853317 -1.13894653 19.02883911 C-1.1163457 12.63988093 -0.6713229 6.3527339 0 0 Z " fill="#248A48" transform="translate(372,179)"/>
<path d="M0 0 C3.4784225 1.63882869 5.68905842 3.48049935 8.37890625 6.25390625 C9.62873291 7.52923218 9.62873291 7.52923218 10.90380859 8.83032227 C11.78117676 9.73194092 12.65854492 10.63355957 13.5625 11.5625 C20.43268981 18.52400634 27.22049992 25.06608703 35 31 C36.036535 31.84568308 37.07021908 32.69486829 38.1015625 33.546875 C52.12509497 45.0322301 67.51872438 54.47781704 84 62 C84.69963867 62.32419922 85.39927734 62.64839844 86.12011719 62.98242188 C116.12410414 76.74374982 148.67900176 82.75103676 180.7890625 89.4765625 C247.75474041 103.50975105 323.25597026 119.81284733 363.78320312 181.06787109 C373 195.70304976 373 195.70304976 373 200 C364.6875 203.5625 364.6875 203.5625 360 202 C360 202.66 360 203.32 360 204 C358.68 203.67 357.36 203.34 356 203 C355.67 203.66 355.34 204.32 355 205 C352.78515625 205.81640625 352.78515625 205.81640625 350.0625 206.5625 C346.44202679 207.549513 346.44202679 207.549513 343 209 C342.34 208.67 341.68 208.34 341 208 C340.67 208.66 340.34 209.32 340 210 C338.0625 211.1875 338.0625 211.1875 336 212 C335.34 211.67 334.68 211.34 334 211 C333.67 211.66 333.34 212.32 333 213 C332.01 213.33 331.02 213.66 330 214 C329.319375 214.7425 329.319375 214.7425 328.625 215.5 C326.5348126 217.42940376 324.74992227 217.49343537 322 218 C321.67 218.66 321.34 219.32 321 220 C319.68946944 221.02970259 318.35113205 222.02418241 317 223 C313.38324328 225.78212055 310.20880151 228.75929279 307 232 C305.93678162 233.06438547 304.87295211 234.12816074 303.80859375 235.19140625 C303.25623047 235.74376953 302.70386719 236.29613281 302.13476562 236.86523438 C297.05859375 241.94140625 297.05859375 241.94140625 295.4597168 243.53979492 C294.21675987 244.78316762 292.9753983 246.02813481 291.734375 247.2734375 C290.44612996 248.55587964 289.13507926 249.8154967 287.8125 251.0625 C285.77977645 252.96539122 285.77977645 252.96539122 285 256 C284.01 256.33 283.02 256.66 282 257 C281.09121094 256.04480469 280.18242188 255.08960938 279.24609375 254.10546875 C251.02401574 224.87789858 217.14046067 216.25999753 178.375 207.5625 C161.83505578 203.84607094 145.39180006 199.99714607 129.11328125 195.24609375 C128.46983639 195.05850557 127.82639153 194.8709174 127.16344833 194.67764473 C83.51465056 181.89104811 39.65083549 161.24268256 16.78369141 119.79541016 C4.85021273 97.19405132 -1.18869195 71.98667062 -1.1328125 46.4453125 C-1.13376923 45.46311737 -1.13472595 44.48092224 -1.13571167 43.46896362 C-1.13638831 41.40329931 -1.13457025 39.33763281 -1.13037109 37.27197266 C-1.12502714 34.14090097 -1.13032781 31.00997347 -1.13671875 27.87890625 C-1.13605765 25.85937469 -1.13477584 23.83984322 -1.1328125 21.8203125 C-1.13584885 20.43853317 -1.13584885 20.43853317 -1.13894653 19.02883911 C-1.1163457 12.63988093 -0.6713229 6.3527339 0 0 Z " fill="#31994D" transform="translate(372,179)"/>
<path d="M0 0 C6.93 0 13.86 0 21 0 C24.37637213 9.00365902 24.37637213 9.00365902 25.53393555 12.80786133 C25.92400032 14.08376884 25.92400032 14.08376884 26.32194519 15.38545227 C26.59082047 16.27532333 26.85969574 17.1651944 27.13671875 18.08203125 C27.42102249 19.01802658 27.70532623 19.95402191 27.99824524 20.91838074 C28.59369207 22.88194403 29.18776309 24.84592501 29.78051758 26.81030273 C30.69047348 29.82234251 31.607714 32.83210164 32.52539062 35.84179688 C33.10460881 37.75507454 33.68340007 39.66848151 34.26171875 41.58203125 C34.53666672 42.48202347 34.81161469 43.38201569 35.09489441 44.3092804 C35.34548111 45.1441246 35.59606781 45.97896881 35.85424805 46.83911133 C36.07614304 47.57221024 36.29803802 48.30530914 36.5266571 49.06062317 C37 51 37 51 37 54 C37.66 54 38.32 54 39 54 C39.16367569 53.10167953 39.16367569 53.10167953 39.33065796 52.18521118 C40.54472532 45.79677003 42.16646797 39.62250376 44.0390625 33.3984375 C44.32478119 32.435961 44.61049988 31.4734845 44.90487671 30.48184204 C45.80742477 27.44497115 46.71609953 24.40997499 47.625 21.375 C48.2425956 19.30090272 48.8597869 17.22668502 49.4765625 15.15234375 C50.97970837 10.10015931 52.48834704 5.04964526 54 0 C59.61 0 65.22 0 71 0 C75.16119943 12.22542167 78.87836293 24.54595691 82.49951172 36.94042969 C83.22098965 39.40638368 83.94626777 41.87119601 84.671875 44.3359375 C84.89164001 45.09305023 85.11140503 45.85016296 85.33782959 46.63021851 C86.14322141 50.09397195 86.14322141 50.09397195 88 53 C93.28 35.51 98.56 18.02 104 0 C110.93 0 117.86 0 125 0 C123.72722084 5.72750623 122.43468478 11.15486196 120.61743164 16.68774414 C120.27309334 17.75308632 120.27309334 17.75308632 119.92179871 18.83995056 C119.17194576 21.15634815 118.41618774 23.47076862 117.66015625 25.78515625 C117.13180429 27.41212527 116.6037692 29.03919722 116.07603455 30.66636658 C114.97325302 34.06365423 113.86772646 37.46003126 112.76000977 40.85571289 C111.34602259 45.19049499 109.93728601 49.52696007 108.53040409 53.86405277 C107.4415043 57.21985254 106.35064563 60.57501282 105.25912285 63.92996025 C104.739258 65.52808935 104.21979719 67.12634994 103.7007618 68.72474861 C102.97301247 70.96432371 102.24283274 73.203092 101.51196289 75.44165039 C101.19622818 76.41522995 101.19622818 76.41522995 100.87411499 77.40847778 C99.37395681 81.9910448 97.71518079 86.49481257 96 91 C90.39 91 84.78 91 79 91 C76.88076689 84.09529144 74.76287914 77.19017222 72.64624023 70.28466797 C71.92590763 67.93527048 71.20520672 65.58598588 70.48413086 63.23681641 C69.4480879 59.8612986 68.41336763 56.48537779 67.37890625 53.109375 C66.89448814 51.53261993 66.89448814 51.53261993 66.40028381 49.92401123 C66.10004807 48.94329651 65.79981232 47.96258179 65.49047852 46.95214844 C65.22622574 46.09055115 64.96197296 45.22895386 64.68971252 44.34124756 C64.06999155 42.23758818 63.513066 40.13185148 63 38 C60.68455515 43.96995257 58.72429749 49.98142053 56.8984375 56.1171875 C56.61650543 57.0555545 56.33457336 57.99392151 56.0440979 58.96072388 C55.1518202 61.93138329 54.26310168 64.9030897 53.375 67.875 C52.47943229 70.86823326 51.58306151 73.86121656 50.68447876 76.85354614 C50.12728203 78.70933891 49.57186565 80.56566735 49.0184021 82.4225769 C48.64263535 83.67495651 48.64263535 83.67495651 48.25927734 84.95263672 C48.03960297 85.68795624 47.81992859 86.42327576 47.59359741 87.18087769 C47 89 47 89 46 91 C40.39 91 34.78 91 29 91 C22.31444869 71.19830354 15.81848147 51.33944918 9.4375 31.4375 C9.08284668 30.33424377 8.72819336 29.23098755 8.36279297 28.09429932 C7.34189135 24.91663072 6.32465211 21.73781386 5.30859375 18.55859375 C5.003806 17.61079544 4.69901825 16.66299713 4.38499451 15.68647766 C4.0999556 14.79148056 3.81491669 13.89648346 3.52124023 12.97436523 C3.27462143 12.20342026 3.02800262 11.43247528 2.77391052 10.63816833 C1.74235712 7.12172627 0.88880181 3.55520725 0 0 Z " fill="#009465" transform="translate(630,721)"/>
<path d="M0 0 C57.55599442 0 57.55599442 0 71.8125 13 C81.84831536 23.74874213 84.51549267 36.17903118 84.2734375 50.41015625 C83.77002593 62.55433723 77.94439752 72.60401424 69.1875 80.8125 C59.19560939 89.0070099 48.55025666 91.32782574 35.9375 91.1953125 C34.56368164 91.19229126 34.56368164 91.19229126 33.16210938 91.18920898 C29.77468788 91.17882673 26.38733836 91.15090479 23 91.125 C15.41 91.08375 7.82 91.0425 0 91 C0 60.97 0 30.94 0 0 Z M21 19 C21 36.82 21 54.64 21 73 C39.42906306 73.85259081 39.42906306 73.85259081 55.4296875 66.65625 C61.41158043 60.3469898 63.31774765 52.06258165 63.21875 43.66015625 C62.58191656 35.91580673 59.33974539 29.15921861 53.6875 23.8125 C42.47798355 16.25259356 36.57839218 19 21 19 Z " fill="#007651" transform="translate(348,721)"/>
<path d="M0 0 C1.36267834 0.98836993 2.71813783 1.9868575 4.0625 3 C4.92875 3.5775 5.795 4.155 6.6875 4.75 C15.5735539 13.16836685 20.39770185 24.09606407 21.30078125 36.19140625 C21.62195347 50.77938648 17.34842336 63.27243164 7.5625 74.1875 C-2.87646938 84.08444597 -16.15982084 87.49138823 -30.12890625 87.2421875 C-42.81343374 86.43558165 -54.70277313 81.42149557 -63.4140625 71.9453125 C-72.66019183 60.13871659 -75.84866099 47.86542289 -74.9375 33 C-73.71189519 24.5973365 -70.82333904 17.90756554 -65.9375 11 C-65.49664063 10.36320313 -65.05578125 9.72640625 -64.6015625 9.0703125 C-49.85889952 -10.10367114 -19.50020725 -12.55405499 0 0 Z M-48.46484375 21.70703125 C-53.78196421 29.98594294 -54.26811073 38.4728272 -52.9375 48 C-50.7192926 55.66289828 -47.13597909 60.98915905 -40.1640625 64.953125 C-32.89831877 68.36929924 -26.02864501 69.09949749 -18.375 66.8125 C-11.36667168 64.22666852 -6.58848958 60.62586998 -2.9375 54 C0.16149739 46.29709642 0.57823374 35.4893416 -2 27.5 C-4.97514555 21.27423246 -9.31608228 16.38059909 -15.625 13.5 C-27.92700045 9.31843991 -40.05894604 11.69017526 -48.46484375 21.70703125 Z " fill="#007851" transform="translate(831.9375,727)"/>
<path d="M0 0 C8.5843798 6.19568281 15.04541352 15.15325408 17.7734375 25.4609375 C19.4878964 36.92372468 19.7493132 49.18040639 14.24609375 59.62109375 C13.82199219 60.47832031 13.39789062 61.33554687 12.9609375 62.21875 C6.78505223 73.62435428 -2.97532782 80.07145271 -14.9921875 84.43359375 C-28.61005394 88.12657448 -42.82224989 85.67198302 -55.00390625 78.93359375 C-65.48775277 72.0859598 -72.75465023 62.79893929 -76.32104492 50.6965332 C-79.13247202 37.2165886 -77.03137546 22.86367426 -69.56640625 11.37109375 C-52.71681952 -10.96357121 -23.23595427 -14.90818826 0 0 Z M-44.75390625 14.62109375 C-45.66140625 15.15734375 -46.56890625 15.69359375 -47.50390625 16.24609375 C-54.04202313 23.14743935 -56.07097184 31.52119483 -55.97265625 40.73828125 C-55.34866565 48.96158595 -51.86951424 55.50548576 -46.06640625 61.30859375 C-39.9233237 66.09340679 -32.37728388 67.55915235 -24.75390625 66.62109375 C-17.66948354 65.27686995 -12.50072576 62.03375672 -7.75390625 56.62109375 C-2.85235229 49.02793502 -1.96886335 41.54692399 -2.75390625 32.62109375 C-4.62724545 25.03067275 -7.32501319 19.23003412 -13.62890625 14.43359375 C-23.51908072 8.69729256 -34.97542492 8.74578774 -44.75390625 14.62109375 Z " fill="#008F61" transform="translate(516.75390625,728.37890625)"/>
<path d="M0 0 C0.64324219 0.5878125 1.28648437 1.175625 1.94921875 1.78125 C1.94921875 5.78125 1.94921875 5.78125 -0.67578125 8.796875 C-1.79078697 9.88533297 -2.9162521 10.96315725 -4.05078125 12.03125 C-4.623125 12.58554687 -5.19546875 13.13984375 -5.78515625 13.7109375 C-7.19821182 15.07689122 -8.62336883 16.43030611 -10.05078125 17.78125 C-13.22511959 16.22888717 -16.24448175 14.50549857 -19.26953125 12.68359375 C-25.41372313 9.5710755 -33.2979858 9.91118849 -39.84765625 11.4296875 C-47.35466593 14.09126366 -51.10736966 18.22949778 -54.86328125 25.09375 C-58.04046919 34.95975465 -57.50307793 44.25359057 -52.92578125 53.59375 C-49.36313668 59.50711313 -44.62616928 61.83694105 -38.30078125 64.15625 C-29.6203484 65.93334649 -21.51478418 64.34258512 -14.05078125 59.78125 C-13.39078125 59.12125 -12.73078125 58.46125 -12.05078125 57.78125 C-7.73018166 57.88663048 -5.09820648 61.2189487 -2.23828125 64.09375 C-1.46581055 64.82368164 -1.46581055 64.82368164 -0.67773438 65.56835938 C2.90777101 69.13466527 2.90777101 69.13466527 3.0859375 71.9140625 C-0.58583277 77.94535525 -9.36436183 81.28133846 -15.8828125 83.2734375 C-30.6334057 86.7285314 -45.31660535 85.26809739 -58.44921875 77.56640625 C-68.92643468 70.37708541 -75.64267949 60.12848014 -78.578125 47.7890625 C-80.85663867 33.28943003 -78.26836223 20.32731404 -69.953125 8.21484375 C-52.71045725 -13.84302485 -22.11355665 -13.88012115 0 0 Z " fill="#009B69" transform="translate(623.05078125,729.21875)"/>
</svg>
