<svg width="30" height="30" viewBox="0 0 30 30" fill="none" xmlns="http://www.w3.org/2000/svg">
<g clip-path="url(#clip0_34_14023)">
<path d="M15.2384 24.9973C15.9286 24.981 16.5011 25.5274 16.5174 26.2176C16.5335 26.9078 15.9871 27.4804 15.297 27.4965L14.9991 27.5L14.7013 27.4965C14.0111 27.4804 13.4648 26.9078 13.4809 26.2176C13.4971 25.5274 14.0696 24.981 14.7599 24.9973L14.9991 25L15.2384 24.9973ZM20.2035 23.5409C20.7926 23.181 21.562 23.3669 21.9218 23.9561C22.2816 24.5452 22.0958 25.3145 21.5066 25.6744C21.3376 25.7776 21.1659 25.877 20.9916 25.9724C20.386 26.3038 19.6264 26.0815 19.295 25.4759C18.9636 24.8702 19.1859 24.1106 19.7915 23.7792C19.9309 23.703 20.0683 23.6235 20.2035 23.5409ZM8.07644 23.9561C8.4363 23.3669 9.20563 23.181 9.79477 23.5409C9.93003 23.6235 10.0674 23.703 10.2067 23.7792C10.8124 24.1106 11.0347 24.8702 10.7033 25.4759C10.3719 26.0815 9.6123 26.3038 9.00668 25.9724C8.83242 25.877 8.66068 25.7776 8.4916 25.6744C7.90247 25.3145 7.71659 24.5452 8.07644 23.9561ZM14.9991 7.5C19.1413 7.5 22.4991 10.8579 22.4991 15C22.4991 19.1421 19.1413 22.5 14.9991 22.5C10.857 22.5 7.49913 19.1421 7.49913 15C7.49913 10.8579 10.857 7.5 14.9991 7.5ZM23.7784 19.7924C24.1098 19.1868 24.8694 18.9645 25.475 19.2959C26.0806 19.6273 26.3029 20.3869 25.9715 20.9925C25.8761 21.1667 25.7768 21.3385 25.6735 21.5075C25.3136 22.0966 24.5444 22.2825 23.9553 21.9226C23.366 21.5629 23.1801 20.7935 23.54 20.2044C23.6226 20.0691 23.7021 19.9318 23.7784 19.7924ZM4.52328 19.2959C5.1289 18.9645 5.88849 19.1868 6.21988 19.7924C6.29613 19.9318 6.3756 20.0691 6.45823 20.2044C6.81808 20.7935 6.6322 21.5629 6.04305 21.9226C5.45392 22.2825 4.68459 22.0966 4.32473 21.5075C4.22147 21.3385 4.12209 21.1667 4.02673 20.9925C3.69534 20.3869 3.91765 19.6273 4.52328 19.2959ZM14.9991 12.5C13.6184 12.5 12.4991 13.6193 12.4991 15C12.4991 16.3807 13.6184 17.5 14.9991 17.5C16.3799 17.5 17.4991 16.3807 17.4991 15C17.4991 13.6193 16.3799 12.5 14.9991 12.5ZM3.78155 13.4818C4.47172 13.498 5.0181 14.0705 5.00193 14.7608L4.99983 15.1198L5.00193 15.2392C5.0181 15.9295 4.47172 16.502 3.78155 16.5182C3.09138 16.5344 2.51878 15.988 2.50262 15.2979L2.5 14.8509L2.50262 14.7021C2.51878 14.012 3.09138 13.4656 3.78155 13.4818ZM26.2168 13.4818C26.9069 13.4656 27.4795 14.012 27.4956 14.7021L27.4991 15L27.4956 15.2979C27.4795 15.988 26.9069 16.5344 26.2168 16.5182C25.5265 16.502 24.9801 15.9295 24.9964 15.2392L24.9991 15L24.9964 14.7608C24.9801 14.0705 25.5265 13.498 26.2168 13.4818ZM23.9553 8.07731C24.5444 7.71746 25.3136 7.90334 25.6735 8.49248C25.7768 8.66155 25.8761 8.83329 25.9715 9.00755C26.3029 9.61317 26.0806 10.3728 25.475 10.7042C24.8694 11.0355 24.1098 10.8132 23.7784 10.2076C23.7021 10.0683 23.6226 9.9309 23.54 9.79564C23.1801 9.2065 23.366 8.43718 23.9553 8.07731ZM4.32473 8.49248C4.68459 7.90334 5.45392 7.71746 6.04305 8.07731C6.6322 8.43718 6.81808 9.2065 6.45822 9.79564C6.3756 9.9309 6.29613 10.0683 6.21988 10.2076C5.88849 10.8132 5.1289 11.0355 4.52328 10.7042C3.91765 10.3728 3.69534 9.61317 4.02673 9.00755C4.12209 8.83329 4.22147 8.66155 4.32473 8.49248ZM19.295 4.52415C19.6264 3.91852 20.386 3.69621 20.9916 4.0276C21.1659 4.12296 21.3376 4.22234 21.5066 4.3256C22.0958 4.68546 22.2816 5.45479 21.9218 6.04393C21.562 6.63308 20.7926 6.81895 20.2035 6.45909C20.0683 6.37648 19.9309 6.297 19.7915 6.22075C19.1859 5.88936 18.9636 5.12977 19.295 4.52415ZM9.00668 4.0276C9.6123 3.69621 10.3719 3.91852 10.7033 4.52415C11.0347 5.12977 10.8124 5.88936 10.2067 6.22075C10.0674 6.297 9.93003 6.37648 9.79477 6.4591C9.20563 6.81895 8.4363 6.63308 8.07644 6.04393C7.71659 5.45479 7.90247 4.68546 8.4916 4.3256C8.66068 4.22234 8.83242 4.12296 9.00668 4.0276ZM14.9991 2.5L15.297 2.50349C15.9871 2.51965 16.5335 3.09225 16.5174 3.78242C16.5011 4.47259 15.9286 5.01898 15.2384 5.0028L14.9991 5L14.7599 5.0028C14.0696 5.01898 13.4971 4.47259 13.4809 3.78242C13.4648 3.09225 14.0111 2.51965 14.7013 2.50349L14.9991 2.5Z" fill="#006F4C"/>
</g>
<defs>
<clipPath id="clip0_34_14023">
<rect width="30" height="30" fill="white"/>
</clipPath>
</defs>
</svg>
