<svg width="38" height="38" viewBox="0 0 38 38" fill="none" xmlns="http://www.w3.org/2000/svg">
<path d="M25.6646 18.6436C26.4339 18.6436 27.1858 18.4158 27.8254 17.989C28.465 17.5622 28.9635 16.9555 29.2579 16.2458C29.5523 15.536 29.6293 14.7551 29.4792 14.0016C29.3292 13.2481 28.9587 12.556 28.4148 12.0128C27.8709 11.4696 27.1778 11.0997 26.4234 10.9498C25.6689 10.7999 24.8869 10.8768 24.1762 11.1708C23.4655 11.4648 22.8581 11.9627 22.4307 12.6014C22.0034 13.2402 21.7753 13.9911 21.7753 14.7594C21.7737 15.2699 21.8733 15.7757 22.0682 16.2476C22.2631 16.7195 22.5495 17.1483 22.911 17.5093C23.2725 17.8703 23.7018 18.1564 24.1744 18.351C24.647 18.5457 25.1534 18.6451 25.6646 18.6436ZM14.0009 17.0902C14.9237 17.0899 15.8257 16.8164 16.5929 16.3042C17.36 15.792 17.9579 15.0642 18.3109 14.2127C18.6639 13.3612 18.7562 12.4243 18.5761 11.5205C18.396 10.6167 17.9516 9.78642 17.2991 9.13477C16.6466 8.48312 15.8152 8.03931 14.9102 7.85945C14.0051 7.67959 13.067 7.77176 12.2144 8.12429C11.3618 8.47683 10.633 9.07391 10.1202 9.84005C9.6073 10.6062 9.33341 11.507 9.33313 12.4286C9.33043 13.0415 9.44932 13.6489 9.68295 14.2157C9.91657 14.7825 10.2603 15.2974 10.6943 15.7308C11.1283 16.1642 11.6439 16.5075 12.2115 16.7408C12.779 16.9741 13.3872 17.0929 14.0009 17.0902ZM25.6646 21.7504C22.8185 21.7504 17.1089 23.1802 17.1089 26.0225V29.5173H34.2203V26.0225C34.2232 23.1788 28.5136 21.7504 25.6646 21.7504ZM14.0009 20.197C10.3764 20.197 3.11133 22.009 3.11133 25.6346V29.5188H14.0009V26.0225C14.0437 24.8681 14.4126 23.7493 15.0651 22.7953C15.7175 21.8414 16.6268 21.0912 17.688 20.6314C16.476 20.3674 15.2412 20.2219 14.0009 20.197Z" fill="white"/>
</svg>
