<svg width="30" height="30" viewBox="0 0 30 30" fill="none" xmlns="http://www.w3.org/2000/svg">
<path d="M28.9286 3.87762H24.8469H11.5817H7.49988C6.90814 3.87762 6.42844 4.35733 6.42844 4.94907V9.03065V10.8163H1.07145C0.479707 10.8163 0 11.296 0 11.8877V25.051C0 25.6427 0.479707 26.1224 1.07145 26.1224H19.643C20.2347 26.1224 20.7144 25.6427 20.7144 25.051V21.3265H24.8469H28.9286C29.5203 21.3265 30 20.8468 30 20.255V16.1734V9.03059V4.94907C30 4.35727 29.5203 3.87762 28.9286 3.87762ZM8.57139 6.02051H10.3133C10.0078 6.81985 9.3709 7.45671 8.57139 7.76221V6.02051ZM18.5715 23.9794H2.14289V17.2448H18.5716L18.5715 23.9794ZM18.5715 15.102H2.14289V12.9591H18.5716L18.5715 15.102ZM27.8571 19.1836H26.1153C26.4207 18.3843 27.0576 17.7474 27.8571 17.4419V19.1836ZM27.8571 15.2149C25.8741 15.6359 24.3094 17.2007 23.8883 19.1837H20.7143V14.9697H20.7144C21.5821 14.3945 22.0977 13.5326 22.0976 12.602C22.0976 10.8749 20.3918 9.52208 18.2142 9.52208C16.9269 9.52208 15.7514 10.0146 15.038 10.8163H8.57139V9.9893C10.5544 9.56825 12.1192 8.0035 12.5404 6.02051H23.8883C24.3095 8.00344 25.8742 9.56807 27.8572 9.9893L27.8571 15.2149ZM27.8571 7.76221C27.0577 7.45671 26.4208 6.81991 26.1153 6.02051H27.8571V7.76221Z" fill="white"/>
<path d="M8.92812 19.3877H5.3566C4.76486 19.3877 4.28516 19.8674 4.28516 20.4591C4.28516 21.0508 4.76486 21.5306 5.3566 21.5306H8.92812C9.51986 21.5306 9.99957 21.0508 9.99957 20.4591C9.99951 19.8674 9.5198 19.3877 8.92812 19.3877Z" fill="white"/>
</svg>
