<svg width="30" height="30" viewBox="0 0 30 30" fill="none" xmlns="http://www.w3.org/2000/svg">
<path d="M15.1504 15.975C15.0629 15.9625 14.9504 15.9625 14.8504 15.975C12.6504 15.9 10.9004 14.1 10.9004 11.8875C10.9004 9.62498 12.7254 7.78748 15.0004 7.78748C17.2629 7.78748 19.1004 9.62498 19.1004 11.8875C19.0879 14.1 17.3504 15.9 15.1504 15.975Z" stroke="white" stroke-width="2" stroke-linecap="round" stroke-linejoin="round"/>
<path d="M23.4243 24.2251C21.1993 26.2626 18.2493 27.5001 14.9993 27.5001C11.7492 27.5001 8.79922 26.2626 6.57422 24.2251C6.69922 23.0501 7.44922 21.9001 8.78672 21.0001C12.2117 18.7251 17.8118 18.7251 21.2118 21.0001C22.5493 21.9001 23.2993 23.0501 23.4243 24.2251Z" stroke="white" stroke-width="2" stroke-linecap="round" stroke-linejoin="round"/>
<path d="M15 27.5C21.9035 27.5 27.5 21.9035 27.5 15C27.5 8.09644 21.9035 2.5 15 2.5C8.09644 2.5 2.5 8.09644 2.5 15C2.5 21.9035 8.09644 27.5 15 27.5Z" stroke="white" stroke-width="2" stroke-linecap="round" stroke-linejoin="round"/>
</svg>
