<svg width="20" height="20" viewBox="0 0 20 20" fill="none" xmlns="http://www.w3.org/2000/svg">
<g clip-path="url(#clip0_1740_1567)">
<path d="M19.1673 3.33335V8.33335M19.1673 8.33335H14.1673M19.1673 8.33335L15.3007 4.70001C14.405 3.80394 13.297 3.14935 12.08 2.79732C10.8629 2.4453 9.57657 2.4073 8.34089 2.68689C7.10521 2.96648 5.96048 3.55454 5.01354 4.39619C4.06659 5.23785 3.34829 6.30567 2.92565 7.50001M0.833984 16.6667V11.6667M0.833984 11.6667H5.83398M0.833984 11.6667L4.70065 15.3C5.59627 16.1961 6.70429 16.8507 7.92132 17.2027C9.13835 17.5547 10.4247 17.5927 11.6604 17.3131C12.8961 17.0335 14.0408 16.4455 14.9878 15.6038C15.9347 14.7622 16.653 13.6944 17.0756 12.5" stroke="white" stroke-width="2" stroke-linecap="round" stroke-linejoin="round"/>
</g>
<defs>
<clipPath id="clip0_1740_1567">
<rect width="20" height="20" fill="white"/>
</clipPath>
</defs>
</svg>
