<svg width="30" height="30" viewBox="0 0 30 30" fill="none" xmlns="http://www.w3.org/2000/svg">
<g clip-path="url(#clip0_34_14004)">
<path d="M18.7816 9.64362C18.7816 11.7797 17.0477 13.5108 14.9097 13.5108C12.7741 13.5108 11.043 11.7792 11.043 9.64362C11.043 7.50799 12.7741 5.77643 14.9097 5.77643C17.0477 5.77643 18.7816 7.50799 18.7816 9.64362Z" fill="white"/>
<path d="M14.9148 0.245605C13.1251 0.245605 10.6252 0.959043 8.81445 2.76982L10.9651 6.6881C11.435 6.09005 12.0348 5.60667 12.7191 5.27453C13.4033 4.94239 14.1542 4.77018 14.9148 4.77092C16.5362 4.77092 17.979 5.53685 18.8982 6.72795L21.0076 2.67982C19.4405 0.96748 16.6304 0.245605 14.9148 0.245605ZM16.5085 3.12279H15.5073V4.1231H14.3045V3.12279H13.3032V1.92045H14.3045V0.915918H15.5073V1.92045H16.5085V3.12279Z" fill="white"/>
<path d="M9.82758 20.4614H10.818L9.40336 25.3102H20.457L19.0488 20.4614H20.0402L21.4573 25.3102H24.7099L22.4899 17.9639C22.143 16.7513 20.6224 14.6161 17.9984 14.5514L11.9655 14.5463C9.28195 14.5594 7.72945 16.7363 7.37836 17.9635L5.11523 25.3097H8.41383L9.82758 20.4614Z" fill="white"/>
<path d="M0.443359 26.8561H29.3793V29.609H0.443359V26.8561Z" fill="white"/>
</g>
<defs>
<clipPath id="clip0_34_14004">
<rect width="30" height="30" fill="white"/>
</clipPath>
</defs>
</svg>
