<svg width="31" height="30" viewBox="0 0 31 30" fill="none" xmlns="http://www.w3.org/2000/svg">
<path d="M2.01176 22.5C3.04707 24.2945 5.34306 24.911 7.13993 23.8771C7.14116 23.8764 7.14234 23.8757 7.14357 23.875L7.70054 23.5537C8.75193 24.4521 9.96044 25.1487 11.2652 25.6087V26.25C11.2652 28.3211 12.9464 30 15.0202 30C17.094 30 18.7752 28.3211 18.7752 26.25V25.6087C20.0801 25.148 21.2887 24.4505 22.3399 23.5512L22.8994 23.8737C24.6966 24.9093 26.9943 24.2937 28.0312 22.4987C29.0681 20.7038 28.4517 18.4092 26.6543 17.3737L26.0986 17.0537C26.3488 15.6943 26.3488 14.3007 26.0986 12.9412L26.6543 12.6212C28.4516 11.5857 29.0681 9.29115 28.0312 7.49619C26.9943 5.70129 24.6967 5.08564 22.8994 6.12117L22.3424 6.44244C21.2899 5.5452 20.0806 4.8498 18.7752 4.39125V3.75C18.7752 1.67895 17.094 0 15.0202 0C12.9464 0 11.2652 1.67895 11.2652 3.75V4.39125C9.96027 4.85197 8.75169 5.54947 7.70054 6.44877L7.14105 6.12504C5.34371 5.08945 3.04614 5.7051 2.00924 7.5C0.972336 9.2949 1.58874 11.5895 3.38608 12.625L3.94181 12.945C3.69164 14.3044 3.69164 15.698 3.94181 17.0575L3.38608 17.3775C1.59373 18.4158 0.979318 20.7059 2.01176 22.5ZM15.0202 10C17.7853 10 20.0268 12.2386 20.0268 15C20.0268 17.7614 17.7853 20 15.0202 20C12.2551 20 10.0136 17.7614 10.0136 15C10.0136 12.2386 12.2551 10 15.0202 10Z" fill="white"/>
</svg>
