<svg width="30" height="30" viewBox="0 0 30 30" fill="none" xmlns="http://www.w3.org/2000/svg">
<g clip-path="url(#clip0_1540_557)">
<path d="M10 26.25H4.26125C4.12576 26.2497 3.99591 26.1957 3.90011 26.0999C3.8043 26.0041 3.75033 25.8742 3.75 25.7388V4.26125C3.75033 4.12576 3.8043 3.99591 3.90011 3.90011C3.99591 3.8043 4.12576 3.75033 4.26125 3.75H10C10.4973 3.75 10.9742 3.55246 11.3258 3.20083C11.6775 2.84919 11.875 2.37228 11.875 1.875C11.875 1.37772 11.6775 0.900805 11.3258 0.549175C10.9742 0.197544 10.4973 0 10 0L4.26125 0C3.1315 0.00132328 2.04841 0.4507 1.24955 1.24955C0.4507 2.04841 0.00132328 3.1315 0 4.26125L0 25.7388C0.00132328 26.8685 0.4507 27.9516 1.24955 28.7504C2.04841 29.5493 3.1315 29.9987 4.26125 30H10C10.4973 30 10.9742 29.8025 11.3258 29.4508C11.6775 29.0992 11.875 28.6223 11.875 28.125C11.875 27.6277 11.6775 27.1508 11.3258 26.7992C10.9742 26.4475 10.4973 26.25 10 26.25Z" fill="white"/>
<path d="M28.3525 11.0216L23.5 6.17285C23.3258 5.99876 23.1191 5.86069 22.8916 5.76651C22.664 5.67233 22.4202 5.62388 22.1739 5.62394C21.9277 5.624 21.6839 5.67256 21.4564 5.76685C21.2289 5.86114 21.0222 5.99931 20.8481 6.17347C20.674 6.34764 20.536 6.55439 20.4418 6.78191C20.3476 7.00944 20.2992 7.25329 20.2992 7.49954C20.2993 7.99686 20.497 8.47377 20.8488 8.82535L25.1138 13.0891L8.125 13.1241C7.62772 13.1241 7.15081 13.3216 6.79917 13.6733C6.44754 14.0249 6.25 14.5018 6.25 14.9991C6.25 15.4964 6.44754 15.9733 6.79917 16.3249C7.15081 16.6766 7.62772 16.8741 8.125 16.8741L25.1825 16.8428L20.8488 21.1766C20.5177 21.5322 20.3376 22.0024 20.3464 22.4881C20.3552 22.9739 20.5522 23.4373 20.8959 23.7806C21.2396 24.124 21.7032 24.3206 22.1889 24.3289C22.6747 24.3372 23.1447 24.1567 23.5 23.8253L28.3488 18.9766C28.8711 18.4543 29.2854 17.8342 29.5681 17.1517C29.8508 16.4692 29.9963 15.7378 29.9963 14.9991C29.9963 14.2604 29.8508 13.5289 29.5681 12.8465C29.2854 12.164 28.8711 11.5439 28.3488 11.0216H28.3525Z" fill="white"/>
</g>
<defs>
<clipPath id="clip0_1540_557">
<rect width="30" height="30" fill="white"/>
</clipPath>
</defs>
</svg>
